<?xml version="1.0" standalone="no"?><!-- Generator: Gravit.io --><svg xmlns="http://www.w3.org/2000/svg" xmlns:xlink="http://www.w3.org/1999/xlink" style="isolation:isolate" viewBox="0 0 256 256" width="256" height="256"><defs><clipPath id="_clipPath_HrofjNWbQYER5Ab0KcYKi2q8RsMq2I0E"><rect width="256" height="256"/></clipPath></defs><g clip-path="url(#_clipPath_HrofjNWbQYER5Ab0KcYKi2q8RsMq2I0E)"><g><linearGradient id="_lgradient_2" x1="0.4999999999999998" y1="-6.938893903907228e-18" x2="0.5325581395348835" y2="2.4531075565301537" gradientTransform="matrix(245.798,0,0,176.365,5.101,40.218)" gradientUnits="userSpaceOnUse"><stop offset="0%" stop-opacity="1" style="stop-color:rgb(255,0,0)"/><stop offset="100%" stop-opacity="1" style="stop-color:rgb(0,0,0)"/></linearGradient><path d=" M 48.913 41.502 C 86.938 38.714 168.882 38.725 207.086 41.515 C 231.267 43.282 250.899 64.4 250.899 88.645 L 250.899 166.557 C 250.899 190.802 232.777 211.489 210.457 212.725 C 210.457 212.725 169.755 216.582 128.79 216.583 C 87.825 216.585 46.597 212.731 46.597 212.731 C 23.695 211.492 5.101 190.802 5.101 166.557 L 5.101 88.645 C 5.101 64.4 24.732 43.276 48.913 41.502 Z " fill="url(#_lgradient_2)"/><path d=" M 118.211 123.672 L 101.542 123.672 C 92.839 123.672 89.307 129.502 93.658 136.683 L 106.887 158.516 L 120.116 180.348 C 124.467 187.529 131.533 187.529 135.884 180.348 L 149.113 158.516 L 162.342 136.683 C 166.693 129.502 163.161 123.672 154.458 123.672 L 137.789 123.672 L 137.789 77.262 C 137.789 73.401 134.499 70.266 130.447 70.266 L 125.553 70.266 C 121.501 70.266 118.211 73.401 118.211 77.262 L 118.211 123.672 Z " fill-rule="evenodd" fill="rgb(255,255,255)"/></g></g></svg>